<?xml version='1.0' encoding='iso-8859-1'?>
<!DOCTYPE svg PUBLIC '-//W3C//DTD SVG 1.1//EN' 'http://www.w3.org/Graphics/SVG/1.1/DTD/svg11.dtd'>
<svg version="1.1" xmlns="http://www.w3.org/2000/svg" viewBox="0 0 442.12 442.12" xmlns:xlink="http://www.w3.org/1999/xlink" enable-background="new 0 0 442.12 442.12">
  <g>
    <path d="m437.56,173.845c0-6.904-5.597-12.5-12.5-12.5h-29.567c4.568-22.677 4.534-46.61-0.304-67.713-6.85-29.872-22.542-51.373-44.188-60.542-17.641-7.469-38.655-6.344-60.059,3.024-18.866-23.401-41.785-36.114-65.686-36.114-27.924,0-54.66,17.554-74.72,48.605-20.215-10.369-40.402-12.572-57.853-6.11-20.92,7.731-36.695,27.4-44.42,55.384-5.415,19.615-6.439,42.037-3.104,63.466h-28.099c-6.903,0-12.5,5.596-12.5,12.5 0,57.829 22.52,112.197 63.411,153.089 22.725,22.725 49.616,39.766 78.946,50.431-10.683,15.164-16.581,33.397-16.581,52.256 0,6.904 5.597,12.5 12.5,12.5h156.439c6.903,0 12.5-5.596 12.5-12.5 0-18.858-5.897-37.091-16.579-52.254 29.333-10.665 56.226-27.706 78.952-50.433 40.893-40.892 63.412-95.26 63.412-153.089zm-96.309-117.735c27.305,11.566 39.78,59.324 28.671,105.235h-42.097c0.564-5.156 0.851-10.455 0.851-15.865 0-30.072-8.469-61.667-23.446-88.186 13.399-4.996 25.891-5.472 36.021-1.184zm-115.995-31.11c18.845,0 38.453,13.592 53.796,37.29 15.419,23.815 24.624,54.914 24.624,83.19 0,5.473-0.352,10.776-1.037,15.865h-154.765c-0.686-5.089-1.037-10.392-1.037-15.865 0-24.542 6.958-51.457 19.09-73.844 15.824-29.202 38.004-46.636 59.329-46.636zm-152.894,79.531c3.2-11.593 11.222-32.021 28.996-38.589 10.596-3.925 23.544-2.267 37.197,4.612-10.827,23.649-16.719,49.834-16.719,74.926 0,5.41 0.287,10.709 0.851,15.865h-52.174c-3.577-19.103-2.973-39.345 1.849-56.814zm339.795,81.814c-0.156,2.41-0.371,4.804-0.616,7.189-14.228,1.671-22.972,6.878-30.23,11.218-7.688,4.597-13.761,8.229-27.032,8.229s-19.344-3.631-27.032-8.229c-8.771-5.244-19.687-11.771-39.861-11.771s-31.09,6.527-39.86,11.772c-7.688,4.597-13.76,8.228-27.03,8.228-13.27,0-19.342-3.631-27.029-8.228-8.77-5.245-19.685-11.772-39.859-11.772-20.174,0-31.088,6.527-39.858,11.772-7.687,4.597-13.758,8.228-27.027,8.228s-19.341-3.631-27.027-8.228c-7.065-4.225-15.531-9.277-29.1-11.084-0.251-2.43-0.47-4.868-0.629-7.324h382.19zm-126.583,230.775h-129.035c2.326-11.977 7.967-23.125 16.309-32.137 15.639,3.539 31.786,5.362 48.213,5.362 16.425,0 32.569-1.822 48.206-5.36 8.341,9.011 13.981,20.159 16.307,32.135zm-64.514-51.775c-89.568,0-164.959-61.822-185.783-145.029 4.209,1.486 7.692,3.564 11.585,5.893 8.77,5.245 19.685,11.772 39.858,11.772 20.175,0 31.089-6.527 39.859-11.772 7.687-4.597 13.758-8.228 27.026-8.228 13.27,0 19.342,3.631 27.029,8.228 8.77,5.245 19.685,11.772 39.859,11.772s31.09-6.527 39.86-11.772c7.688-4.597 13.76-8.228 27.03-8.228s19.343,3.631 27.031,8.228c8.771,5.245 19.687,11.772 39.862,11.772s31.092-6.527 39.862-11.772c4.263-2.549 8.033-4.798 12.804-6.298-20.677,83.411-96.168,145.434-185.882,145.434z"/>
    <path d="m262.812,244.092l-41.752,18.125-41.752-18.125c-13.125-5.698-28.144-2.843-38.262,7.276-6.538,6.538-10.139,15.23-10.139,24.477 0,9.246 3.601,17.939 10.139,24.477 6.659,6.659 15.439,10.172 24.406,10.172 4.658,0 9.368-0.948 13.854-2.896l22.264-9.665-8.466,28.929c-1.938,6.625 1.86,13.569 8.486,15.508 6.621,1.938 13.568-1.86 15.508-8.486l3.961-13.534 3.96,13.534c1.597,5.454 6.582,8.993 11.991,8.992 1.163,0 2.345-0.163 3.517-0.506 6.626-1.939 10.425-8.882 8.486-15.508l-8.466-28.929 22.264,9.665c4.488,1.948 9.195,2.896 13.854,2.896 8.967,0 17.748-3.514 24.406-10.172 6.538-6.538 10.139-15.231 10.139-24.477 0-9.246-3.601-17.939-10.139-24.477-10.114-10.118-25.136-12.974-38.259-7.276zm-93.46,40.573c-3.646,1.582-7.817,0.79-10.628-2.021-1.816-1.816-2.816-4.231-2.816-6.799s1-4.983 2.816-6.799c1.85-1.85 4.288-2.825 6.779-2.825 1.294,0 2.603,0.263 3.849,0.804l20.317,8.82-20.317,8.82zm114.043-2.021c-2.811,2.811-6.983,3.603-10.628,2.021l-20.317-8.82 20.317-8.82c3.648-1.582 7.818-0.789 10.628,2.021 1.816,1.816 2.816,4.231 2.816,6.799s-1,4.983-2.816,6.799z"/>
  </g>
</svg>
