<?xml version='1.0' encoding='iso-8859-1'?>
<!DOCTYPE svg PUBLIC '-//W3C//DTD SVG 1.1//EN' 'http://www.w3.org/Graphics/SVG/1.1/DTD/svg11.dtd'>
<svg version="1.1" xmlns="http://www.w3.org/2000/svg" viewBox="0 0 484.104 484.104" xmlns:xlink="http://www.w3.org/1999/xlink" enable-background="new 0 0 484.104 484.104">
  <path d="m453.183,264.275c-7.007-5.82-14.781-10.406-23.021-13.695-1.297-42.884-17.512-81.382-42.294-100.85-5.051-28.195-18.519-49.581-38.275-60.557-17.52-9.735-38.882-11.036-62.143-3.867-14.141-11.138-29.704-16.996-45.397-16.996-15.684,0-31.251,5.849-45.408,16.985-23.248-7.153-44.604-5.849-62.132,3.878-19.756,10.976-33.224,32.361-38.275,60.556-24.786,19.47-40.998,57.964-42.295,100.851-8.24,3.289-16.015,7.875-23.022,13.695-19.651,16.322-30.921,40.334-30.921,65.879 0,47.222 38.418,85.64 85.64,85.64h312.824c47.222,0 85.64-38.418 85.64-85.641 0-25.545-11.271-49.556-30.921-65.878zm-48.351-19.535c-7.299-0.537-14.714-0.147-22.083,1.228-16.521,3.084-33.083,5.61-49.671,7.603 5.487-13.622 8.332-29.065 8.332-45.732 0-14.961-2.254-30.62-6.553-45.905 7.634-1.99 14.916-2.147 21.747-0.451 4.443,1.1 8.756,3.025 12.828,5.728 19.263,12.759 32.901,43.125 35.4,77.529zm-67.381-133.713c8.927,4.959 15.984,13.667 20.74,25.277-10.188-1.762-20.949-1.069-31.781,2.049-5.176-11.769-11.491-22.619-18.63-32.031 9.734-1.284 20.236-0.537 29.671,4.705zm-129.69-2.398c7.632-6.988 19.776-15.319 34.292-15.319 14.521,0 26.652,8.333 34.271,15.323 0.101,0.092 0.202,0.182 0.306,0.271 12.718,11.758 23.688,29.35 30.915,49.582 5.8,16.259 8.865,33.325 8.865,49.354 0,19.286-4.339,35.635-12.883,48.713-16.615,1.345-33.248,2.134-49.884,2.387-0.58-3.372-1.285-6.788-2.136-10.216-10.2-41.158-38.539-80.631-70.977-100.214 7.07-16.151 16.535-30.078 27.231-39.881zm-61.112,2.401c9.439-5.238 19.941-5.989 29.674-4.711-7.14,9.417-13.455,20.267-18.629,32.033-10.833-3.117-21.595-3.811-31.78-2.048 4.756-11.61 11.812-20.317 20.735-25.274zm-31.966,56.174c4.063-2.696 8.376-4.621 12.827-5.723 9.854-2.445 20.649-1.04 32.094,4.179 29.761,13.562 58.206,51.024 67.637,89.08 0.346,1.393 0.654,2.779 0.946,4.16-42.384-0.772-84.742-5.074-126.833-12.931-7.368-1.375-14.783-1.765-22.082-1.228 2.499-34.41 16.137-64.777 35.411-77.537zm283.781,223.59h-312.824c-33.437,0-60.64-27.203-60.64-60.641 0-18.088 7.98-35.09 21.894-46.647 10.998-9.135 24.659-14.001 38.683-14.001 3.719,0 7.464,0.343 11.191,1.038 96.403,17.997 194.166,17.997 290.57,0 17.778-3.32 35.958,1.406 49.872,12.963 13.914,11.558 21.895,28.56 21.895,46.648-0.001,33.437-27.204,60.64-60.641,60.64z"/>
</svg>
