<?xml version='1.0' encoding='iso-8859-1'?>
<!DOCTYPE svg PUBLIC '-//W3C//DTD SVG 1.1//EN' 'http://www.w3.org/Graphics/SVG/1.1/DTD/svg11.dtd'>
<svg version="1.1" xmlns="http://www.w3.org/2000/svg" viewBox="0 0 460.763 460.763" xmlns:xlink="http://www.w3.org/1999/xlink" enable-background="new 0 0 460.763 460.763">
  <path d="m457.76,195.984c-7.534-42.859-28.031-73.386-57.716-85.957-22.975-9.729-50.618-7.825-78.764,5.216-24.448-31.409-54.309-48.502-85.366-48.502-35.356,0-69.166,22.146-95.199,62.358-0.63,0.973-1.249,1.956-1.865,2.942-26.689-14.584-53.387-18.012-76.242-9.56-28.495,10.534-49.111,38.32-58.052,78.239-8.039,35.889-5.354,76.203 7.364,110.603 12.563,33.981 33.891,58.605 61.678,71.211 13.441,6.098 28.116,9.152 43.241,9.152 13.961,0 28.305-2.603 42.408-7.818 4.1-1.513 8.086-3.238 11.945-5.115 19.057,9.963 41.167,15.266 64.723,15.266 18.35,0 35.825-3.213 51.661-9.343 15.533,6.126 31.427,9.202 46.925,9.201 14.152,0 27.976-2.565 40.879-7.712 30.139-12.021 54.021-37.151 69.064-72.674 15.256-36.031 20.109-78.862 13.316-117.507zm-373.833,163.785c-21.57-9.786-38.361-29.535-48.557-57.114-10.928-29.557-13.327-65.621-6.417-96.469 6.923-30.908 22.35-52.87 42.327-60.255 15.915-5.886 35.355-3.008 55.561,8.038-14.922,31.238-23.217,66.607-23.217,100.483 0,42.517 13.415,78.263 38.794,103.375 1.371,1.356 2.778,2.674 4.212,3.959-21.897,7.138-44.018,6.46-62.703-2.017zm76.074-19.714c-20.527-20.311-31.378-49.912-31.378-85.604 0-37.99 12.366-79.772 33.079-111.766 20.96-32.376 48.01-50.944 74.213-50.944s53.253,18.568 74.213,50.944c20.713,31.994 33.079,73.776 33.079,111.766 0,35.691-10.851,65.292-31.378,85.604-18.878,18.679-45.839,28.966-75.915,28.966s-57.035-10.287-75.913-28.966zm261.423-36.309c-12.382,29.237-31.506,49.708-55.305,59.201-14.712,5.868-31.109,7.347-47.773,4.522 3.884-2.982 7.583-6.195 11.067-9.642 25.379-25.112 38.794-60.858 38.794-103.375 0-40.462-11.834-83.057-32.661-118.194 20.244-8.544 39.346-9.733 54.749-3.209 21.298,9.019 36.914,33.536 42.842,67.264 5.893,33.522 1.513,72.189-11.713,103.433z"/>
</svg>
