<?xml version="1.0" encoding="iso-8859-1"?>
<!-- Generator: Adobe Illustrator 17.1.0, SVG Export Plug-In . SVG Version: 6.00 Build 0)  -->
<!DOCTYPE svg PUBLIC "-//W3C//DTD SVG 1.1//EN" "http://www.w3.org/Graphics/SVG/1.1/DTD/svg11.dtd">
<svg version="1.1" id="Capa_1" xmlns="http://www.w3.org/2000/svg" xmlns:xlink="http://www.w3.org/1999/xlink" x="0px" y="0px"
	 viewBox="0 0 84.285 84.285" style="enable-background:new 0 0 84.285 84.285;" xml:space="preserve">
<g>
	<path d="M77.386,24.214H50.558h-0.176H33.904h-0.176H6.899c-1.654,0-3,1.346-3,3v2.25c0,1.654,1.346,3,3,3h23.828v21.088
		l-7.202,1.069c-1.915,0.285-3.432,2.024-3.453,3.96l-0.237,22.094c-0.01,0.961,0.357,1.866,1.033,2.55
		c0.677,0.684,1.578,1.06,2.539,1.06h2.41c1.985,0,3.6-1.615,3.6-3.6V66.417c0-0.949,0.816-1.944,1.746-2.131l10.979-2.202
		l10.979,2.202c0.93,0.187,1.746,1.182,1.746,2.131v14.268c0,1.985,1.615,3.6,3.6,3.6h2.41c0.961,0,1.862-0.376,2.539-1.061
		c0.676-0.684,1.043-1.589,1.033-2.55l-0.237-22.094c-0.021-1.937-1.538-3.676-3.453-3.96l-7.201-1.069V32.464h23.828
		c1.654,0,3-1.346,3-3v-2.25C80.386,25.56,79.04,24.214,77.386,24.214z"/>
	<path d="M42.142,21.672c5.975,0,10.836-4.861,10.836-10.836S48.117,0,42.142,0c-5.975,0-10.835,4.861-10.835,10.836
		S36.167,21.672,42.142,21.672z"/>
</g>
<g>
</g>
<g>
</g>
<g>
</g>
<g>
</g>
<g>
</g>
<g>
</g>
<g>
</g>
<g>
</g>
<g>
</g>
<g>
</g>
<g>
</g>
<g>
</g>
<g>
</g>
<g>
</g>
<g>
</g>
</svg>
