<?xml version="1.0" encoding="iso-8859-1"?>
<!-- Generator: Adobe Illustrator 18.0.0, SVG Export Plug-In . SVG Version: 6.00 Build 0)  -->
<!DOCTYPE svg PUBLIC "-//W3C//DTD SVG 1.1//EN" "http://www.w3.org/Graphics/SVG/1.1/DTD/svg11.dtd">
<svg version="1.1" id="Capa_1" xmlns="http://www.w3.org/2000/svg" xmlns:xlink="http://www.w3.org/1999/xlink" x="0px" y="0px"
	 viewBox="0 0 306.819 306.819" style="enable-background:new 0 0 306.819 306.819;" xml:space="preserve">
<g>
	<g>
		<g>
			<g>
				<path d="M120.118,202.911c-30.092,0-54.574-24.48-54.574-54.571c0-30.091,24.481-54.572,54.574-54.572
					c30.09,0,54.57,24.481,54.57,54.572C174.688,178.431,150.207,202.911,120.118,202.911z M120.118,108.767
					c-21.821,0-39.574,17.752-39.574,39.572c0,21.819,17.752,39.571,39.574,39.571c21.819,0,39.57-17.752,39.57-39.571
					C159.688,126.519,141.937,108.767,120.118,108.767z"/>
			</g>
			<g>
				<path d="M93.404,156.568c-4.142,0-7.5-3.357-7.5-7.5c0-18.865,15.348-34.213,34.213-34.213c4.142,0,7.5,3.357,7.5,7.5
					s-3.358,7.5-7.5,7.5c-10.595,0-19.213,8.619-19.213,19.213C100.904,153.211,97.546,156.568,93.404,156.568z"/>
			</g>
		</g>
		<g>
			<path d="M70.164,303.038c-15.194,0-28.649-7-36.912-19.206c-8.64-12.762-10.083-28.904-3.966-44.31
				c0.679-1.939,10.171-30.618-8.727-63.513C2.823,145.135-3.482,118.702,1.817,97.445c4.384-17.589,11.778-30.571,22.607-39.688
				C37.281,46.933,54.6,41.672,77.372,41.672l12.418,0.01c39.564,0,67.413-1.214,93.021-17.432
				c20.84-13.199,42.709-20.469,61.578-20.469c19.352,0,35.742,7.641,47.398,22.097c30.309,37.587,7.272,75.632-4.039,90.244
				c-19.932,25.752-21.705,44.46-5.749,60.657c12.736,12.93,16.624,32.775,9.671,49.384c-7.75,18.518-27.028,29.14-52.891,29.142
				c-0.002,0-0.006,0-0.01,0c-2.969,0-6.072-0.138-9.224-0.409l-0.605-0.053c-18.462-1.592-33.043-2.849-45.523-2.849
				c-28.043,0-43.74,6.698-64.604,27.566C99.415,298.965,81.65,303.038,70.164,303.038z M77.372,56.672
				c-44.002,0-55.528,22.445-61,44.401c-4.33,17.368,1.454,40.066,17.193,67.465c22.782,39.655,10.318,74.749,9.777,76.224
				c-0.024,0.067-0.05,0.134-0.077,0.199c-4.299,10.749-3.422,21.851,2.407,30.462c5.428,8.017,14.355,12.615,24.491,12.615
				c8.652,0,22.274-3.311,38.043-19.083c23.593-23.598,43.274-31.961,75.212-31.961c13.125,0,27.99,1.281,46.811,2.904l0.605,0.052
				c2.725,0.235,5.395,0.354,7.938,0.354c0.002,0,0.004,0,0.007,0c19.806-0.002,33.676-7.081,39.056-19.934
				c4.574-10.927,1.893-24.524-6.521-33.064c-11.826-12.007-16.75-25.726-14.633-40.776c1.708-12.148,7.99-25.099,19.207-39.59
				c11.341-14.65,26.969-43.439,4.224-71.646c-8.835-10.957-20.853-16.513-35.722-16.513c-16.065,0-35.082,6.442-53.553,18.141
				c-28.961,18.342-60.148,19.76-101.047,19.76L77.372,56.672z"/>
		</g>
	</g>
</g>
<g>
</g>
<g>
</g>
<g>
</g>
<g>
</g>
<g>
</g>
<g>
</g>
<g>
</g>
<g>
</g>
<g>
</g>
<g>
</g>
<g>
</g>
<g>
</g>
<g>
</g>
<g>
</g>
<g>
</g>
</svg>
