<?xml version="1.0" encoding="iso-8859-1"?>
<!-- Generator: Adobe Illustrator 16.0.0, SVG Export Plug-In . SVG Version: 6.00 Build 0)  -->
<!DOCTYPE svg PUBLIC "-//W3C//DTD SVG 1.1//EN" "http://www.w3.org/Graphics/SVG/1.1/DTD/svg11.dtd">
<svg version="1.1" id="Capa_1" xmlns="http://www.w3.org/2000/svg" xmlns:xlink="http://www.w3.org/1999/xlink" x="0px" y="0px"
	 width="124.532px" height="124.532px" viewBox="0 0 124.532 124.532" style="enable-background:new 0 0 124.532 124.532;"
	 xml:space="preserve">
<g>
	<g>
		<path d="M61.889,99.775c-6.836,0-12.38,5.543-12.38,12.38c0.001,6.833,5.544,12.375,12.38,12.377
			c6.835,0,12.377-5.544,12.376-12.377C74.266,105.318,68.725,99.775,61.889,99.775z"/>
		<path d="M94.06,105.424c-1.047-9.127-2.934-17.574-9.579-17.574c-2.525,0-6.491-0.002-9.924-0.006V58.549l8.545-0.081
			c2.216-0.021,4.216-1.327,5.125-3.348c0.909-2.02,0.561-4.386-0.893-6.057L68.748,27.685c-1.979-2.276-5.375-2.589-7.737-0.777
			l0.02-21.223C61.035,2.548,58.494,0.004,55.357,0c-0.002,0-0.003,0-0.005,0c-3.134,0-5.676,2.539-5.679,5.675l-0.046,47.759
			c-0.001,0.515,0.075,1.016,0.203,1.491c-0.395,1.061-0.612,2.208-0.612,3.431l0.001,29.49c-3.246,0.002-6.828,0.004-9.171,0.004
			c-6.646,0-8.531,8.447-9.579,17.574c-0.782,6.813-0.9,13.506-0.904,13.786c-0.043,2.653,2.071,4.841,4.725,4.884
			c0.028,0,0.055,0.002,0.082,0.002c2.616,0,4.759-2.103,4.803-4.728c0.151-9.099,1.312-18.601,2.601-21.91
			c4.116,0,10.129-0.006,13.127-0.01c1.221,0.729,2.549,1.276,3.902,1.608l3.084-3.104l2.989,3.139
			c0.011-0.005,0.021-0.002,0.03-0.007c1.385-0.331,2.743-0.892,3.989-1.638c2.632,0.002,9.372,0.01,13.858,0.01
			c1.288,3.311,2.447,12.812,2.601,21.91c0.043,2.625,2.187,4.727,4.803,4.727c0.027,0,0.055-0.002,0.081-0.002
			c2.654-0.043,4.769-2.229,4.727-4.883C94.961,118.93,94.843,112.238,94.06,105.424z M70.685,47.226l-9.692,0.088l0.01-11.228
			L70.685,47.226z"/>
	</g>
</g>
<g>
</g>
<g>
</g>
<g>
</g>
<g>
</g>
<g>
</g>
<g>
</g>
<g>
</g>
<g>
</g>
<g>
</g>
<g>
</g>
<g>
</g>
<g>
</g>
<g>
</g>
<g>
</g>
<g>
</g>
</svg>
