<?xml version="1.0" encoding="iso-8859-1"?>
<!-- Generator: Adobe Illustrator 16.0.0, SVG Export Plug-In . SVG Version: 6.00 Build 0)  -->
<!DOCTYPE svg PUBLIC "-//W3C//DTD SVG 1.1//EN" "http://www.w3.org/Graphics/SVG/1.1/DTD/svg11.dtd">
<svg version="1.1" id="Capa_1" xmlns="http://www.w3.org/2000/svg" xmlns:xlink="http://www.w3.org/1999/xlink" x="0px" y="0px"
	 width="125.417px" height="125.417px" viewBox="0 0 125.417 125.417" style="enable-background:new 0 0 125.417 125.417;"
	 xml:space="preserve">
<g>
	<g>
		<circle cx="112.82" cy="78.398" r="12.596"/>
		<path d="M99.414,75.356c-0.219-0.858-0.542-1.729-0.954-2.568l-0.079-33.486c-0.007-2.697-2.193-4.879-4.89-4.879
			c-0.005,0-0.009,0-0.013,0c-2.701,0.007-4.886,2.201-4.879,4.901L88.664,66.7l-26.802,0.23c-3.908,0.033-6.824,2.576-8.388,5.871
			L5.777,72.817C2.586,72.819-0.001,75.407,0,78.599c0.001,3.192,2.588,5.778,5.779,5.778H5.78l47.784-0.017
			c1.566,3.156,4.462,5.721,8.5,5.686l27.803-0.238c5.162-0.046,8.583-4.604,9.578-8.822c0,0,0.387-1.329,0.343-2.74
			c-0.041-1.35-0.368-2.852-0.368-2.852L99.414,75.356z"/>
	</g>
</g>
<g>
</g>
<g>
</g>
<g>
</g>
<g>
</g>
<g>
</g>
<g>
</g>
<g>
</g>
<g>
</g>
<g>
</g>
<g>
</g>
<g>
</g>
<g>
</g>
<g>
</g>
<g>
</g>
<g>
</g>
</svg>
