<?xml version="1.0" encoding="iso-8859-1"?>
<!-- Generator: Adobe Illustrator 19.1.0, SVG Export Plug-In . SVG Version: 6.00 Build 0)  -->
<svg version="1.1" id="Capa_1" xmlns="http://www.w3.org/2000/svg" xmlns:xlink="http://www.w3.org/1999/xlink" x="0px" y="0px"
	 viewBox="0 0 482.4 482.4" style="enable-background:new 0 0 482.4 482.4;" xml:space="preserve">
<g>
	<g>
		<path d="M412.5,28.75H69.9C31.4,28.75,0,60.05,0,98.65v209.1c0,38.5,31.3,69.9,69.9,69.9h30.7v62.5c0,5.1,2.9,9.7,7.4,12
			c1.9,1,4,1.5,6.1,1.5c2.8,0,5.6-0.9,8-2.6l100.7-73.4h189.7c38.5,0,69.9-31.3,69.9-69.9V98.65C482.4,60.05,451,28.75,412.5,28.75z
			 M455.4,307.65c0,23.6-19.2,42.9-42.9,42.9H218.4c-2.9,0-5.6,0.9-8,2.6l-82.8,60.4v-49.5c0-3.6-1.4-7-4-9.5s-6-4-9.5-4H69.9
			c-23.6,0-42.9-19.2-42.9-42.9v-209c0-23.6,19.2-42.9,42.9-42.9h342.6c23.6,0,42.9,19.2,42.9,42.9L455.4,307.65L455.4,307.65z"/>
		<path d="M360.5,119.95H121.9c-7.5,0-13.5,6-13.5,13.5s6,13.5,13.5,13.5h238.6c7.5,0,13.5-6,13.5-13.5S368,119.95,360.5,119.95z"/>
		<path d="M360.5,185.35H121.9c-7.5,0-13.5,6-13.5,13.5s6,13.5,13.5,13.5h238.6c7.5,0,13.5-6,13.5-13.5S368,185.35,360.5,185.35z"/>
		<path d="M360.5,250.75H121.9c-7.5,0-13.5,6-13.5,13.5s6,13.5,13.5,13.5h238.6c7.5,0,13.5-6,13.5-13.5S368,250.75,360.5,250.75z"/>
	</g>
</g>
<g>
</g>
<g>
</g>
<g>
</g>
<g>
</g>
<g>
</g>
<g>
</g>
<g>
</g>
<g>
</g>
<g>
</g>
<g>
</g>
<g>
</g>
<g>
</g>
<g>
</g>
<g>
</g>
<g>
</g>
</svg>
