<?xml version="1.0" encoding="iso-8859-1"?>
<!-- Generator: Adobe Illustrator 18.0.0, SVG Export Plug-In . SVG Version: 6.00 Build 0)  -->
<!DOCTYPE svg PUBLIC "-//W3C//DTD SVG 1.1//EN" "http://www.w3.org/Graphics/SVG/1.1/DTD/svg11.dtd">
<svg version="1.1" id="Capa_1" xmlns="http://www.w3.org/2000/svg" xmlns:xlink="http://www.w3.org/1999/xlink" x="0px" y="0px"
	 viewBox="0 0 460 460" style="enable-background:new 0 0 460 460;" xml:space="preserve">
<g id="XMLID_790_">
	<path id="XMLID_806_" d="M458.797,207.791c-4.188-12.937-18.072-20.03-31.007-15.842l-60.702,19.649
		c-4.469-9.906-10.592-23.684-18.339-41.575c-7.311-16.885-20.92-48.314-56.238-48.314h-0.957
		c-11.01,22.931-34.462,38.803-61.553,38.803s-50.543-15.872-61.553-38.803h-0.957c-35.318,0-48.927,31.429-56.238,48.313
		c-7.747,17.892-13.87,31.67-18.339,41.576L32.21,191.949c-12.936-4.186-26.819,2.905-31.007,15.842s2.905,26.819,15.842,31.007
		l81.517,26.387c11.742,3.8,24.476-1.679,29.795-12.803c19.31-40.359,30.274-70.698,36.436-79.317v150.1l-71.908-17.669
		c-17.897-4.397-35.976,6.546-40.374,24.447c-4.399,17.9,6.547,35.977,24.447,40.374l62.703,15.407
		c0.029,2.514,0.334,5.063,0.96,7.609c4.4,17.907,22.484,28.847,40.374,24.447l44.567-10.95l44.567,10.95
		c17.903,4.401,35.977-6.553,40.374-24.447c0.626-2.547,0.931-5.096,0.96-7.609l62.703-15.407
		c17.9-4.397,28.846-22.474,24.447-40.374c-4.397-17.9-22.475-28.846-40.374-24.447l-63.032,15.488V173.081
		c6.113,8.512,16.579,37.676,36.435,79.299c5.323,11.133,18.061,16.604,29.796,12.805l81.517-26.387
		C455.892,234.61,462.985,220.728,458.797,207.791z"/>
	<circle id="XMLID_811_" cx="230" cy="92.275" r="51.028"/>
</g>
<g>
</g>
<g>
</g>
<g>
</g>
<g>
</g>
<g>
</g>
<g>
</g>
<g>
</g>
<g>
</g>
<g>
</g>
<g>
</g>
<g>
</g>
<g>
</g>
<g>
</g>
<g>
</g>
<g>
</g>
</svg>
